<svg xmlns="http://www.w3.org/2000/svg" width="185.058" height="54.2" viewBox="0 0 185.058 54.2">
  <g id="logo" transform="translate(0 0.04)">
    <path id="Path_1" data-name="Path 1" d="M35.485,52.234a7.514,7.514,0,0,1-2.842-3.162,10.467,10.467,0,0,1-1.013-4.707h4.829a5.75,5.75,0,0,0,.909,3.384,2.751,2.751,0,0,0,2.362,1.279h2.736A2.749,2.749,0,0,0,44.829,47.7a6.1,6.1,0,0,0,.905-3.5v-16h4.9V44.4a10.5,10.5,0,0,1-1,4.69,7.47,7.47,0,0,1-2.805,3.144,7.747,7.747,0,0,1-4.157,1.12H39.73A7.936,7.936,0,0,1,35.485,52.234Z" transform="translate(-31.63 -28.233)" fill="#6ccff6"/>
    <path id="Path_2" data-name="Path 2" d="M161.627,47.245h-9.309l-2.2,5.792H145l9.736-24.877h2.2a3.075,3.075,0,0,1,3.126,2.131L168.91,53.03h-5.117Zm-7.994-4.116h6.68l-3.3-8.957h-.035Z" transform="translate(-124.998 -28.2)" fill="#6ccff6"/>
    <path id="Path_3" data-name="Path 3" d="M293.81,28.2h4.37l11.937,16.911V28.2h4.8V53.077h-4.37l-11.937-16.92V53.07h-4.8Z" transform="translate(-247.553 -28.233)" fill="#6ccff6"/>
    <path id="Path_4" data-name="Path 4" d="M438.39,28.2h4.37L454.7,45.111V28.2h4.8V53.077h-4.368l-11.937-16.92V53.07h-4.8Z" transform="translate(-366.624 -28.233)" fill="#6ccff6"/>
    <path id="Path_5" data-name="Path 5" d="M583.955,52.145A3.208,3.208,0,0,1,583,49.73V28.2h18.968v4.263H587.9v5.759h13v4.264h-13v6.322h14.07v4.264H586.442A3.439,3.439,0,0,1,583.955,52.145Z" transform="translate(-485.721 -28.233)" fill="#6ccff6"/>
    <path id="Path_6" data-name="Path 6" d="M32.19,194.36H37.1v10.268H48.679V194.36h4.9v24.877H48.676V208.9H37.1v10.339H32.19Z" transform="translate(-32.091 -165.077)" fill="#6ccff6"/>
    <path id="Path_7" data-name="Path 7" d="M179.35,218.33a3.193,3.193,0,0,1-.96-2.415V194.39h18.972v4.263H183.293v5.757h13v4.263h-13V215h14.069v4.263H181.836A3.452,3.452,0,0,1,179.35,218.33Z" transform="translate(-152.497 -165.102)" fill="#6ccff6"/>
    <path id="Path_8" data-name="Path 8" d="M306.86,194.36h4.9v24.877h-4.9Z" transform="translate(-258.301 -165.077)" fill="#6ccff6"/>
    <path id="Path_9" data-name="Path 9" d="M377.121,219.2l-8.208-10.445-2.38,2.558V219.2h-4.9V194.32h4.9v10.729l9.88-10.729h6.041l-10.233,10.907,10.872,13.963Z" transform="translate(-303.407 -165.044)" fill="#6ccff6"/>
    <path id="Path_10" data-name="Path 10" d="M512.849,219.2l-8.206-10.445-2.38,2.558V219.2h-4.9V194.32h4.9v10.729l9.88-10.729h6.039l-10.233,10.907,10.872,13.97Z" transform="translate(-415.19 -165.044)" fill="#6ccff6"/>
    <path id="Path_11" data-name="Path 11" d="M635.09,194.36h4.9v24.877h-4.9Z" transform="translate(-528.62 -165.077)" fill="#6ccff6"/>
    <path id="Path_12" data-name="Path 12" d="M689.86,194.36h4.37l11.937,16.911V194.36h4.8v24.877h-4.37l-11.937-16.911v16.911h-4.8Z" transform="translate(-573.727 -165.077)" fill="#6ccff6"/>
    <path id="Path_13" data-name="Path 13" d="M835.408,218.33a3.2,3.2,0,0,1-.958-2.415V194.39h18.975v4.263H839.351v5.757h13v4.263h-13V215h14.074v4.263H837.9A3.456,3.456,0,0,1,835.408,218.33Z" transform="translate(-692.807 -165.102)" fill="#6ccff6"/>
    <path id="Path_14" data-name="Path 14" d="M960.9,194.36h4.37l11.938,16.911V194.36h4.8v24.877h-4.37L965.7,202.326v16.911h-4.8Z" transform="translate(-796.947 -165.077)" fill="#6ccff6"/>
  </g>
</svg>
